<svg xmlns="http://www.w3.org/2000/svg" version="1.1" xmlns:xlink="http://www.w3.org/1999/xlink" xmlns:svgjs="http://svgjs.com/svgjs" width="18" height="21"><svg width="18" height="21" viewBox="0 0 18 21" fill="none" xmlns="http://www.w3.org/2000/svg">
<path d="M9.12 20.96C11.7333 20.96 13.76 20.3733 15.2 19.2C16.64 18.0267 17.36 16.4533 17.36 14.48V14.48V14.24C17.36 12.4533 16.72 11.06 15.44 10.06C14.16 9.06 12.5067 8.45333 10.48 8.24C8.72 8.05333 7.50667 7.82 6.84 7.54C6.17333 7.26 5.84 6.8 5.84 6.16C5.84 5.70667 6.05333 5.32667 6.48 5.02C6.90667 4.71333 7.54667 4.56 8.4 4.56C9.33333 4.56 10.0933 4.76667 10.68 5.18C11.2667 5.59333 11.68 6.16 11.92 6.88V6.88L16.48 5.04C16.2667 4.48 15.96 3.9 15.56 3.3C15.16 2.7 14.64 2.15333 14 1.66C13.36 1.16667 12.58 0.766667 11.66 0.46C10.74 0.153333 9.65333 0 8.4 0C7.44 0 6.50667 0.133333 5.6 0.4C4.69333 0.666667 3.89333 1.06 3.2 1.58C2.50667 2.1 1.94667 2.73333 1.52 3.48C1.09333 4.22667 0.88 5.09333 0.88 6.08V6.08V6.32C0.88 8.21333 1.54 9.64667 2.86 10.62C4.18 11.5933 5.96 12.1733 8.2 12.36C9.02667 12.44 9.71333 12.5467 10.26 12.68C10.8067 12.8133 11.24 12.98 11.56 13.18C11.88 13.38 12.1 13.5933 12.22 13.82C12.34 14.0467 12.4 14.2933 12.4 14.56C12.4 15.0133 12.1667 15.4333 11.7 15.82C11.2333 16.2067 10.3733 16.4 9.12 16.4C7.70667 16.4 6.66 16.08 5.98 15.44C5.3 14.8 4.85333 14.0533 4.64 13.2V13.2L0 14.72C0.133333 15.4133 0.393333 16.1267 0.78 16.86C1.16667 17.5933 1.72 18.26 2.44 18.86C3.16 19.46 4.06667 19.96 5.16 20.36C6.25333 20.76 7.57333 20.96 9.12 20.96Z" fill="#FCB72B"></path>
</svg><style>@media (prefers-color-scheme: light) { :root { filter: none; } }
</style></svg>